<svg width="220" height="40" viewBox="0 0 220 40" fill="none" xmlns="http://www.w3.org/2000/svg">
<mask id="path-1-inside-1_2713_16121" fill="white">
<path fill-rule="evenodd" clip-rule="evenodd" d="M20.0031 40L9.28906 29.2859L18.5754 19.9996L9.28975 10.714L20.0037 0H199.932L210.647 10.7147L201.362 19.9999L210.648 29.2861L199.934 40H20.0031Z"/>
</mask>
<path fill-rule="evenodd" clip-rule="evenodd" d="M20.0031 40L9.28906 29.2859L18.5754 19.9996L9.28975 10.714L20.0037 0H199.932L210.647 10.7147L201.362 19.9999L210.648 29.2861L199.934 40H20.0031Z" fill="url(#paint0_linear_2713_16121)"/>
<path d="M20.0031 40L17.8818 42.1213L18.7605 43H20.0031V40ZM9.28906 29.2859L7.16774 27.1646L5.04642 29.2859L7.16774 31.4072L9.28906 29.2859ZM18.5754 19.9996L20.6967 22.1209L22.818 19.9996L20.6967 17.8783L18.5754 19.9996ZM9.28975 10.714L7.16843 8.59265L5.04711 10.714L7.16843 12.8353L9.28975 10.714ZM20.0037 0V-3H18.7611L17.8824 -2.12132L20.0037 0ZM199.932 0L202.053 -2.12132L201.175 -3H199.932V0ZM210.647 10.7147L212.768 12.836L214.889 10.7147L212.768 8.59336L210.647 10.7147ZM201.362 19.9999L199.24 17.8786L197.119 19.9999L199.24 22.1212L201.362 19.9999ZM210.648 29.2861L212.769 31.4074L214.89 29.2861L212.769 27.1647L210.648 29.2861ZM199.934 40V43H201.176L202.055 42.1213L199.934 40ZM22.1245 37.8787L11.4104 27.1646L7.16774 31.4072L17.8818 42.1213L22.1245 37.8787ZM11.4104 31.4072L20.6967 22.1209L16.4541 17.8783L7.16774 27.1646L11.4104 31.4072ZM20.6967 17.8783L11.4111 8.59265L7.16843 12.8353L16.4541 22.1209L20.6967 17.8783ZM11.4111 12.8353L22.125 2.12132L17.8824 -2.12132L7.16843 8.59265L11.4111 12.8353ZM20.0037 3H199.932V-3H20.0037V3ZM197.811 2.12132L208.525 12.836L212.768 8.59336L202.053 -2.12132L197.811 2.12132ZM208.525 8.59336L199.24 17.8786L203.483 22.1212L212.768 12.836L208.525 8.59336ZM199.24 22.1212L208.526 31.4074L212.769 27.1647L203.483 17.8786L199.24 22.1212ZM208.526 27.1647L197.813 37.8787L202.055 42.1213L212.769 31.4074L208.526 27.1647ZM199.934 37H20.0031V43H199.934V37Z" fill="#F1CE89" mask="url(#path-1-inside-1_2713_16121)"/>
<rect x="212.781" y="14.9787" width="7.10153" height="7.10153" transform="rotate(45 212.781 14.9787)" fill="url(#paint1_linear_2713_16121)" stroke="#F1CE89" stroke-width="3"/>
<rect x="7.14062" y="14.9787" width="7.10153" height="7.10153" transform="rotate(45 7.14062 14.9787)" fill="url(#paint2_linear_2713_16121)" stroke="#F1CE89" stroke-width="3"/>
<defs>
<linearGradient id="paint0_linear_2713_16121" x1="122.413" y1="1.06937" x2="122.413" y2="38.8538" gradientUnits="userSpaceOnUse">
<stop stop-color="#01366A"/>
<stop offset="1" stop-color="#011329"/>
</linearGradient>
<linearGradient id="paint1_linear_2713_16121" x1="218.456" y1="13.1275" x2="218.456" y2="22.6695" gradientUnits="userSpaceOnUse">
<stop stop-color="#01366A"/>
<stop offset="1" stop-color="#011329"/>
</linearGradient>
<linearGradient id="paint2_linear_2713_16121" x1="12.8157" y1="13.1275" x2="12.8157" y2="22.6695" gradientUnits="userSpaceOnUse">
<stop stop-color="#01366A"/>
<stop offset="1" stop-color="#011329"/>
</linearGradient>
</defs>
</svg>
